<?xml version="1.0" encoding="UTF-8" standalone="no"?>
<svg width="210px" height="190px" viewBox="0 0 210 190" version="1.1" xmlns="http://www.w3.org/2000/svg" xmlns:xlink="http://www.w3.org/1999/xlink" xmlns:sketch="http://www.bohemiancoding.com/sketch/ns">
    <!-- Generator: Sketch 3.3.3 (12081) - http://www.bohemiancoding.com/sketch -->
    <title>Atomo Copy 2</title>
    <desc>Created with Sketch.</desc>
    <defs>
        <linearGradient x1="32.1735116%" y1="39.4122658%" x2="11.9559003%" y2="137.283536%" id="linearGradient-1">
            <stop stop-color="#FFFFFF" stop-opacity="0" offset="0%"></stop>
            <stop stop-color="#FFFFFF" offset="100%"></stop>
        </linearGradient>
        <linearGradient x1="32.1735116%" y1="39.4122658%" x2="11.9559003%" y2="137.283536%" id="linearGradient-2">
            <stop stop-color="#FFFFFF" stop-opacity="0" offset="0%"></stop>
            <stop stop-color="#000000" offset="100%"></stop>
        </linearGradient>
        <linearGradient x1="50%" y1="0%" x2="165.824381%" y2="78.8072385%" id="linearGradient-3">
            <stop stop-color="#FFFFFF" stop-opacity="0" offset="0%"></stop>
            <stop stop-color="#FFFFFF" offset="100%"></stop>
        </linearGradient>
    </defs>
    <g id="Page-2" stroke="none" stroke-width="1" fill="none" fill-rule="evenodd" sketch:type="MSPage">
        <g id="Desktop" sketch:type="MSArtboardGroup" transform="translate(-656.000000, -372.000000)">
            <g id="Footer" sketch:type="MSLayerGroup" transform="translate(-24.000000, 372.000000)">
                <g id="Atomo-Copy-2" transform="translate(681.000000, 0.959204)" sketch:type="MSShapeGroup">
                    <path d="M104.094788,144.394589 C161.584752,144.394589 208.189577,122.748126 208.189577,96.0458595 C208.189577,69.3435933 161.584752,47.6971297 104.094788,47.6971297 C46.6048242,47.6971297 0,69.3435933 0,96.0458595 C0,122.748126 46.6048242,144.394589 104.094788,144.394589 Z" id="Oval-32-Copy-8" stroke="#FFFFFF"></path>
                    <path d="M143.699749,123.777552 C176.674638,76.68453 185.674322,26.0921915 163.801106,10.7764009 C141.92789,-4.53938979 97.4647161,21.2211457 64.4898274,68.3141673 C31.5149387,115.407189 22.5152547,165.999527 44.3884706,181.315318 C66.2616865,196.631109 110.72486,170.870573 143.699749,123.777552 Z" id="Oval-32-Copy-6" stroke="#FFFFFF"></path>
                    <path d="M143.699749,68.3141673 C110.72486,21.2211457 66.2616865,-4.53938979 44.3884706,10.7764009 C22.5152547,26.0921915 31.5149387,76.68453 64.4898274,123.777552 C97.4647161,170.870573 141.92789,196.631109 163.801106,181.315318 C185.674322,165.999527 176.674638,115.407189 143.699749,68.3141673 Z" id="Oval-32-Copy-7" stroke="#FFFBFB"></path>
                    <g id="Centro-atomo-Copy-2" transform="translate(63.920104, 51.346090)">
                        <g id="Atom-blue-Copy" transform="translate(41.586574, 10.946882)">
                            <path d="M19.2530435,39.0960079 C29.8862057,39.0960079 38.5060869,30.3440684 38.5060869,19.548004 C38.5060869,8.75193949 29.8862057,0 19.2530435,0 C8.61988117,0 0,8.75193949 0,19.548004 C0,30.3440684 8.61988117,39.0960079 19.2530435,39.0960079 Z" id="Oval-11" stroke="#CCCCCC" fill="#DDDDDD"></path>
                            <path d="M3.85060916,7.58771434 C7.13332643,1.34966909 13.405501,-2.86704058 20.603459,-2.86704058 C31.1996848,-2.86704058 39.7896231,6.27109304 39.7896231,17.5435521 C39.7896231,24.0730809 36.9074744,29.8864877 32.4227242,33.6225668 C33.9725458,30.6774888 34.8560381,27.2818692 34.8560381,23.6667299 C34.8560381,12.3942708 26.2660998,3.25613723 15.6698739,3.25613723 C11.2114713,3.25613723 7.10824932,4.87389562 3.85060869,7.58771524 L3.85060916,7.58771434 Z" id="Oval-11" opacity="0.49504431" fill="url(#linearGradient-1)"></path>
                        </g>
                        <g id="Atom-blue" transform="translate(0.000000, 13.553283)">
                            <ellipse id="Oval-11" stroke="#CCCCCC" fill="#DDDDDD" cx="19.2530435" cy="19.548004" rx="19.2530435" ry="19.548004"></ellipse>
                            <path d="M3.85060916,7.58771434 C7.13332643,1.34966909 13.405501,-2.86704058 20.603459,-2.86704058 C31.1996848,-2.86704058 39.7896231,6.27109304 39.7896231,17.5435521 C39.7896231,24.0730809 36.9074744,29.8864877 32.4227242,33.6225668 C33.9725458,30.6774888 34.8560381,27.2818692 34.8560381,23.6667299 C34.8560381,12.3942708 26.2660998,3.25613723 15.6698739,3.25613723 C11.2114713,3.25613723 7.10824932,4.87389562 3.85060869,7.58771524 L3.85060916,7.58771434 Z" id="Oval-11" opacity="0.49504431" fill="url(#linearGradient-1)"></path>
                        </g>
                        <g id="Atom-red-Copy" transform="translate(0.000000, 39.096008)">
                            <ellipse id="Oval-11" fill="#CCCCCC" cx="19.2530435" cy="19.548004" rx="19.2530435" ry="19.548004"></ellipse>
                            <path d="M3.85060916,7.58771434 C7.13332643,1.34966909 13.405501,-2.86704058 20.603459,-2.86704058 C31.1996848,-2.86704058 39.7896231,6.27109304 39.7896231,17.5435521 C39.7896231,24.0730809 36.9074744,29.8864877 32.4227242,33.6225668 C33.9725458,30.6774888 34.8560381,27.2818692 34.8560381,23.6667299 C34.8560381,12.3942708 26.2660998,3.25613723 15.6698739,3.25613723 C11.2114713,3.25613723 7.10824932,4.87389562 3.85060869,7.58771524 L3.85060916,7.58771434 Z" id="Oval-11" opacity="0.49504431" fill="url(#linearGradient-1)"></path>
                        </g>
                        <g id="Atom" transform="translate(19.253043, 0.000000)">
                            <ellipse id="Oval-11" fill="#CCCCCC" cx="19.2530435" cy="19.548004" rx="19.2530435" ry="19.548004"></ellipse>
                            <path d="M3.85060916,7.58771434 C7.13332643,1.34966909 13.405501,-2.86704058 20.603459,-2.86704058 C31.1996848,-2.86704058 39.7896231,6.27109304 39.7896231,17.5435521 C39.7896231,24.0730809 36.9074744,29.8864877 32.4227242,33.6225668 C33.9725458,30.6774888 34.8560381,27.2818692 34.8560381,23.6667299 C34.8560381,12.3942708 26.2660998,3.25613723 15.6698739,3.25613723 C11.2114713,3.25613723 7.10824932,4.87389562 3.85060869,7.58771524 L3.85060916,7.58771434 Z" id="Oval-11" opacity="0.49504431" fill="url(#linearGradient-1)"></path>
                        </g>
                        <g id="Atom-blue-Copy-3" transform="translate(18.996336, 50.042890)">
                            <ellipse id="Oval-11" stroke="#CCCCCC" fill="#DDDDDD" cx="19.2530435" cy="19.548004" rx="19.2530435" ry="19.548004"></ellipse>
                            <path d="M3.85060916,7.58771434 C7.13332643,1.34966909 13.405501,-2.86704058 20.603459,-2.86704058 C31.1996848,-2.86704058 39.7896231,6.27109304 39.7896231,17.5435521 C39.7896231,24.0730809 36.9074744,29.8864877 32.4227242,33.6225668 C33.9725458,30.6774888 34.8560381,27.2818692 34.8560381,23.6667299 C34.8560381,12.3942708 26.2660998,3.25613723 15.6698739,3.25613723 C11.2114713,3.25613723 7.10824932,4.87389562 3.85060869,7.58771524 L3.85060916,7.58771434 Z" id="Oval-11" opacity="0.49504431" fill="url(#linearGradient-2)"></path>
                        </g>
                        <g id="Atom-red" transform="translate(41.586574, 39.096008)">
                            <ellipse id="Oval-11" fill="#CCCCCC" cx="19.2530435" cy="19.548004" rx="19.2530435" ry="19.548004"></ellipse>
                            <path d="M3.85060916,7.58771434 C7.13332643,1.34966909 13.405501,-2.86704058 20.603459,-2.86704058 C31.1996848,-2.86704058 39.7896231,6.27109304 39.7896231,17.5435521 C39.7896231,24.0730809 36.9074744,29.8864877 32.4227242,33.6225668 C33.9725458,30.6774888 34.8560381,27.2818692 34.8560381,23.6667299 C34.8560381,12.3942708 26.2660998,3.25613723 15.6698739,3.25613723 C11.2114713,3.25613723 7.10824932,4.87389562 3.85060869,7.58771524 L3.85060916,7.58771434 Z" id="Oval-11" opacity="0.49504431" fill="url(#linearGradient-1)"></path>
                        </g>
                        <g id="Atom-blue-Copy-4" transform="translate(18.996336, 19.548004)">
                            <ellipse id="Oval-11" stroke="#CCCCCC" fill="#DDDDDD" cx="19.2530435" cy="19.548004" rx="19.2530435" ry="19.548004"></ellipse>
                            <path d="M3.85060916,7.58771434 C7.13332643,1.34966909 13.405501,-2.86704058 20.603459,-2.86704058 C31.1996848,-2.86704058 39.7896231,6.27109304 39.7896231,17.5435521 C39.7896231,24.0730809 36.9074744,29.8864877 32.4227242,33.6225668 C33.9725458,30.6774888 34.8560381,27.2818692 34.8560381,23.6667299 C34.8560381,12.3942708 26.2660998,3.25613723 15.6698739,3.25613723 C11.2114713,3.25613723 7.10824932,4.87389562 3.85060869,7.58771524 L3.85060916,7.58771434 Z" id="Oval-11" opacity="0.49504431" fill="url(#linearGradient-1)"></path>
                        </g>
                    </g>
                    <g id="Atom-blue-Copy-11" transform="translate(114.234724, 168.112834)">
                        <ellipse id="Oval-11" stroke="#F3F3F3" fill="#FFFFFF" cx="9.69069854" cy="9.83916199" rx="9.69069854" ry="9.83916199"></ellipse>
                        <path d="M10.0268446,0.15886147 C14.7094205,0.15886147 18.8728839,4.74778567 19.2193807,9.03281192 C19.4743925,12.1864683 18.5767621,15.0428655 16.3194378,16.9233586 C17.0995147,15.4410027 17.5442058,13.7318742 17.5442058,11.9122541 C17.5442058,6.23844966 13.2206035,1.63892241 7.88716986,1.63892241 C5.6431072,1.63892241 3.65428449,2.69154542 2.01460538,4.0575013 C4.06378434,1.63892237 6.40387246,0.15886147 10.0268446,0.15886147 Z" id="Oval-11" opacity="0.49504431" fill="url(#linearGradient-3)"></path>
                    </g>
                    <g id="Atom-blue-Copy-13" transform="translate(114.234724, 0.000000)">
                        <ellipse id="Oval-11" stroke="#E9EBEA" fill="#FFFFFF" cx="9.69069854" cy="9.83916199" rx="9.69069854" ry="9.83916199"></ellipse>
                        <path d="M10.0268446,0.15886147 C14.7094205,0.15886147 18.8728839,4.74778567 19.2193807,9.03281192 C19.4743925,12.1864683 18.5767621,15.0428655 16.3194378,16.9233586 C17.0995147,15.4410027 17.5442058,13.7318742 17.5442058,11.9122541 C17.5442058,6.23844966 13.2206035,1.63892241 7.88716986,1.63892241 C5.6431072,1.63892241 3.65428449,2.69154542 2.01460538,4.0575013 C4.06378434,1.63892237 6.40387246,0.15886147 10.0268446,0.15886147 Z" id="Oval-11" opacity="0.49504431" fill="url(#linearGradient-3)"></path>
                    </g>
                    <g id="Atom-blue-Copy-12" transform="translate(1.283536, 62.553613)">
                        <ellipse id="Oval-11" stroke="#DDDDDD" fill="#FFFFFF" cx="9.69069854" cy="9.83916199" rx="9.69069854" ry="9.83916199"></ellipse>
                        <path d="M10.0268446,0.15886147 C14.7094205,0.15886147 18.8728839,4.74778567 19.2193807,9.03281192 C19.4743925,12.1864683 18.5767621,15.0428655 16.3194378,16.9233586 C17.0995147,15.4410027 17.5442058,13.7318742 17.5442058,11.9122541 C17.5442058,6.23844966 13.2206035,1.63892241 7.88716986,1.63892241 C5.6431072,1.63892241 3.65428449,2.69154542 2.01460538,4.0575013 C4.06378434,1.63892237 6.40387246,0.15886147 10.0268446,0.15886147 Z" id="Oval-11" opacity="0.49504431" fill="url(#linearGradient-3)"></path>
                    </g>
                </g>
            </g>
        </g>
    </g>
</svg>