<?xml version="1.0" encoding="UTF-8" standalone="no"?>
<svg width="172px" height="147px" viewBox="0 0 172 147" version="1.1" xmlns="http://www.w3.org/2000/svg" xmlns:xlink="http://www.w3.org/1999/xlink" xmlns:sketch="http://www.bohemiancoding.com/sketch/ns">
    <!-- Generator: Sketch 3.3.3 (12081) - http://www.bohemiancoding.com/sketch -->
    <title>Atomo</title>
    <desc>Created with Sketch.</desc>
    <defs>
        <linearGradient x1="32.1735116%" y1="39.4122658%" x2="11.9559003%" y2="137.283536%" id="linearGradient-1">
            <stop stop-color="#FFFFFF" stop-opacity="0" offset="0%"></stop>
            <stop stop-color="#FFFFFF" offset="100%"></stop>
        </linearGradient>
        <linearGradient x1="50%" y1="0%" x2="165.824381%" y2="78.8072385%" id="linearGradient-2">
            <stop stop-color="#FFFFFF" stop-opacity="0" offset="0%"></stop>
            <stop stop-color="#FFFFFF" offset="100%"></stop>
        </linearGradient>
    </defs>
    <g id="Page-2" stroke="none" stroke-width="1" fill="none" fill-rule="evenodd" sketch:type="MSPage">
        <g id="Desktop" sketch:type="MSArtboardGroup" transform="translate(-130.000000, -33.000000)">
            <g id="Header" sketch:type="MSLayerGroup" transform="translate(-19.000000, -26.000000)">
                <g id="Atomo" transform="translate(150.000000, 63.000000)" sketch:type="MSShapeGroup">
                    <path d="M84.9101751,105.034925 C131.80477,105.034925 169.82035,89.288942 169.82035,69.8652882 C169.82035,50.4416345 131.80477,34.695652 84.9101751,34.695652 C38.0155803,34.695652 0,50.4416345 0,69.8652882 C0,89.288942 38.0155803,105.034925 84.9101751,105.034925 Z" id="Oval-32-Copy-8" stroke="#424242"></path>
                    <path d="M113.719455,90.0377629 C140.617089,51.6239597 149.523576,11.4518948 133.612651,0.310944704 C117.701725,-10.8300054 82.9985303,11.2790104 56.1008957,49.6928136 C29.2032611,88.1066168 20.2967738,128.278682 36.2076995,139.419632 C52.1186252,150.560582 86.82182,128.451566 113.719455,90.0377629 Z" id="Oval-32-Copy-6" stroke="#424242"></path>
                    <path d="M113.719455,49.6928136 C86.82182,11.2790104 52.1186252,-10.8300054 36.2076995,0.310944704 C20.2967738,11.4518948 29.2032611,51.6239597 56.1008957,90.0377629 C82.9985303,128.451566 117.701725,150.560582 133.612651,139.419632 C149.523576,128.278682 140.617089,88.1066168 113.719455,49.6928136 Z" id="Oval-32-Copy-7" stroke="#424242"></path>
                    <g id="Centro-atomo-Copy-2" transform="translate(52.139664, 37.349964)">
                        <g id="Atom-blue-Copy" transform="translate(33.922191, 7.962937)">
                            <path d="M15.704718,28.439059 C24.3781942,28.439059 31.4094359,22.0727588 31.4094359,14.2195295 C31.4094359,6.3663002 24.3781942,0 15.704718,0 C7.03124173,0 0,6.3663002 0,14.2195295 C0,22.0727588 7.03124173,28.439059 15.704718,28.439059 Z" id="Oval-11" stroke="#E3B649" fill="#FFCD55"></path>
                            <path d="M3.14094398,5.51942428 C5.81865823,0.981770797 10.9348744,-2.08553099 16.8062526,-2.08553099 C25.4495998,-2.08553099 32.4564171,4.56169298 32.4564171,12.7614593 C32.4564171,17.5111425 30.1054469,21.7399072 26.4472336,24.4575907 C27.711424,22.3152941 28.4320891,19.8452663 28.4320891,17.2155564 C28.4320891,9.01579006 21.4252718,2.36856609 12.7819246,2.36856609 C9.14520317,2.36856609 5.79820282,3.54534932 3.14094359,5.51942494 L3.14094398,5.51942428 Z" id="Oval-11" opacity="0.49504431" fill="url(#linearGradient-1)"></path>
                        </g>
                        <g id="Atom-blue" transform="translate(0.000000, 9.858874)">
                            <ellipse id="Oval-11" stroke="#E2B54A" fill="#FFCD55" cx="15.704718" cy="14.2195295" rx="15.704718" ry="14.2195295"></ellipse>
                            <path d="M3.14094398,5.51942428 C5.81865823,0.981770797 10.9348744,-2.08553099 16.8062526,-2.08553099 C25.4495998,-2.08553099 32.4564171,4.56169298 32.4564171,12.7614593 C32.4564171,17.5111425 30.1054469,21.7399072 26.4472336,24.4575907 C27.711424,22.3152941 28.4320891,19.8452663 28.4320891,17.2155564 C28.4320891,9.01579006 21.4252718,2.36856609 12.7819246,2.36856609 C9.14520317,2.36856609 5.79820282,3.54534932 3.14094359,5.51942494 L3.14094398,5.51942428 Z" id="Oval-11" opacity="0.49504431" fill="url(#linearGradient-1)"></path>
                        </g>
                        <g id="Atom-red-Copy" transform="translate(0.000000, 28.439059)">
                            <ellipse id="Oval-11" fill="#FA6A31" cx="15.704718" cy="14.2195295" rx="15.704718" ry="14.2195295"></ellipse>
                            <path d="M3.14094398,5.51942428 C5.81865823,0.981770797 10.9348744,-2.08553099 16.8062526,-2.08553099 C25.4495998,-2.08553099 32.4564171,4.56169298 32.4564171,12.7614593 C32.4564171,17.5111425 30.1054469,21.7399072 26.4472336,24.4575907 C27.711424,22.3152941 28.4320891,19.8452663 28.4320891,17.2155564 C28.4320891,9.01579006 21.4252718,2.36856609 12.7819246,2.36856609 C9.14520317,2.36856609 5.79820282,3.54534932 3.14094359,5.51942494 L3.14094398,5.51942428 Z" id="Oval-11" opacity="0.49504431" fill="url(#linearGradient-1)"></path>
                        </g>
                        <g id="Atom" transform="translate(15.704718, 0.000000)">
                            <ellipse id="Oval-11" fill="#FA6A31" cx="15.704718" cy="14.2195295" rx="15.704718" ry="14.2195295"></ellipse>
                            <path d="M3.14094398,5.51942428 C5.81865823,0.981770797 10.9348744,-2.08553099 16.8062526,-2.08553099 C25.4495998,-2.08553099 32.4564171,4.56169298 32.4564171,12.7614593 C32.4564171,17.5111425 30.1054469,21.7399072 26.4472336,24.4575907 C27.711424,22.3152941 28.4320891,19.8452663 28.4320891,17.2155564 C28.4320891,9.01579006 21.4252718,2.36856609 12.7819246,2.36856609 C9.14520317,2.36856609 5.79820282,3.54534932 3.14094359,5.51942494 L3.14094398,5.51942428 Z" id="Oval-11" opacity="0.49504431" fill="url(#linearGradient-1)"></path>
                        </g>
                        <g id="Atom-blue-Copy-3" transform="translate(15.495322, 36.401995)">
                            <ellipse id="Oval-11" stroke="#E1B447" fill="#FFCD55" cx="15.704718" cy="14.2195295" rx="15.704718" ry="14.2195295"></ellipse>
                            <path d="M3.14094398,5.51942428 C5.81865823,0.981770797 10.9348744,-2.08553099 16.8062526,-2.08553099 C25.4495998,-2.08553099 32.4564171,4.56169298 32.4564171,12.7614593 C32.4564171,17.5111425 30.1054469,21.7399072 26.4472336,24.4575907 C27.711424,22.3152941 28.4320891,19.8452663 28.4320891,17.2155564 C28.4320891,9.01579006 21.4252718,2.36856609 12.7819246,2.36856609 C9.14520317,2.36856609 5.79820282,3.54534932 3.14094359,5.51942494 L3.14094398,5.51942428 Z" id="Oval-11" opacity="0.49504431" fill="url(#linearGradient-1)"></path>
                        </g>
                        <g id="Atom-red" transform="translate(33.922191, 28.439059)">
                            <ellipse id="Oval-11" fill="#FA6A31" cx="15.704718" cy="14.2195295" rx="15.704718" ry="14.2195295"></ellipse>
                            <path d="M3.14094398,5.51942428 C5.81865823,0.981770797 10.9348744,-2.08553099 16.8062526,-2.08553099 C25.4495998,-2.08553099 32.4564171,4.56169298 32.4564171,12.7614593 C32.4564171,17.5111425 30.1054469,21.7399072 26.4472336,24.4575907 C27.711424,22.3152941 28.4320891,19.8452663 28.4320891,17.2155564 C28.4320891,9.01579006 21.4252718,2.36856609 12.7819246,2.36856609 C9.14520317,2.36856609 5.79820282,3.54534932 3.14094359,5.51942494 L3.14094398,5.51942428 Z" id="Oval-11" opacity="0.49504431" fill="url(#linearGradient-1)"></path>
                        </g>
                        <g id="Atom-blue-Copy-2" transform="translate(15.495322, 14.219529)">
                            <ellipse id="Oval-11" stroke="#3F6EA6" fill="#487DBB" cx="15.704718" cy="14.2195295" rx="15.704718" ry="14.2195295"></ellipse>
                            <path d="M3.14094398,5.51942428 C5.81865823,0.981770797 10.9348744,-2.08553099 16.8062526,-2.08553099 C25.4495998,-2.08553099 32.4564171,4.56169298 32.4564171,12.7614593 C32.4564171,17.5111425 30.1054469,21.7399072 26.4472336,24.4575907 C27.711424,22.3152941 28.4320891,19.8452663 28.4320891,17.2155564 C28.4320891,9.01579006 21.4252718,2.36856609 12.7819246,2.36856609 C9.14520317,2.36856609 5.79820282,3.54534932 3.14094359,5.51942494 L3.14094398,5.51942428 Z" id="Oval-11" opacity="0.49504431" fill="url(#linearGradient-1)"></path>
                        </g>
                        <g id="Atom-blue-Copy-4" transform="translate(15.495322, 14.219529)">
                            <ellipse id="Oval-11" stroke="#DBB04A" fill="#FFCD55" cx="15.704718" cy="14.2195295" rx="15.704718" ry="14.2195295"></ellipse>
                            <path d="M3.14094398,5.51942428 C5.81865823,0.981770797 10.9348744,-2.08553099 16.8062526,-2.08553099 C25.4495998,-2.08553099 32.4564171,4.56169298 32.4564171,12.7614593 C32.4564171,17.5111425 30.1054469,21.7399072 26.4472336,24.4575907 C27.711424,22.3152941 28.4320891,19.8452663 28.4320891,17.2155564 C28.4320891,9.01579006 21.4252718,2.36856609 12.7819246,2.36856609 C9.14520317,2.36856609 5.79820282,3.54534932 3.14094359,5.51942494 L3.14094398,5.51942428 Z" id="Oval-11" opacity="0.49504431" fill="url(#linearGradient-1)"></path>
                        </g>
                    </g>
                    <g id="Atom-blue-Copy-11" transform="translate(93.181327, 122.287954)">
                        <ellipse id="Oval-11" stroke="#73988B" fill="#91BEAE" cx="7.90470804" cy="7.15716318" rx="7.90470804" ry="7.15716318"></ellipse>
                        <path d="M8.1789026,0.115558364 C11.9984822,0.115558364 15.3946216,3.45361493 15.6772592,6.57061129 C15.8852725,8.86463119 15.1530749,10.94242 13.3117743,12.3103207 C13.9480834,11.2320314 14.3108182,9.98878402 14.3108182,8.66516337 C14.3108182,4.53794766 10.7840535,1.19217827 6.43356872,1.19217827 C4.6030856,1.19217827 2.98080184,1.95787302 1.6433147,2.95149108 C3.31483108,1.19217824 5.22364223,0.115558364 8.1789026,0.115558364 Z" id="Oval-11" opacity="0.49504431" fill="url(#linearGradient-2)"></path>
                    </g>
                    <g id="Atom-blue-Copy-13" transform="translate(93.181327, 0.000000)">
                        <ellipse id="Oval-11" stroke="#86AFA1" fill="#91BEAE" cx="7.90470804" cy="7.15716318" rx="7.90470804" ry="7.15716318"></ellipse>
                        <path d="M8.1789026,0.115558364 C11.9984822,0.115558364 15.3946216,3.45361493 15.6772592,6.57061129 C15.8852725,8.86463119 15.1530749,10.94242 13.3117743,12.3103207 C13.9480834,11.2320314 14.3108182,9.98878402 14.3108182,8.66516337 C14.3108182,4.53794766 10.7840535,1.19217827 6.43356872,1.19217827 C4.6030856,1.19217827 2.98080184,1.95787302 1.6433147,2.95149108 C3.31483108,1.19217824 5.22364223,0.115558364 8.1789026,0.115558364 Z" id="Oval-11" opacity="0.49504431" fill="url(#linearGradient-2)"></path>
                    </g>
                    <g id="Atom-blue-Copy-12" transform="translate(1.046981, 45.502494)">
                        <ellipse id="Oval-11" stroke="#85B7A5" fill="#91BEAE" cx="7.90470804" cy="7.15716318" rx="7.90470804" ry="7.15716318"></ellipse>
                        <path d="M8.1789026,0.115558364 C11.9984822,0.115558364 15.3946216,3.45361493 15.6772592,6.57061129 C15.8852725,8.86463119 15.1530749,10.94242 13.3117743,12.3103207 C13.9480834,11.2320314 14.3108182,9.98878402 14.3108182,8.66516337 C14.3108182,4.53794766 10.7840535,1.19217827 6.43356872,1.19217827 C4.6030856,1.19217827 2.98080184,1.95787302 1.6433147,2.95149108 C3.31483108,1.19217824 5.22364223,0.115558364 8.1789026,0.115558364 Z" id="Oval-11" opacity="0.49504431" fill="url(#linearGradient-2)"></path>
                    </g>
                </g>
            </g>
        </g>
    </g>
</svg>