<?xml version="1.0" encoding="UTF-8" standalone="no"?>
<svg width="307px" height="267px" viewBox="0 0 307 267" version="1.1" xmlns="http://www.w3.org/2000/svg" xmlns:xlink="http://www.w3.org/1999/xlink" xmlns:sketch="http://www.bohemiancoding.com/sketch/ns">
    <!-- Generator: Sketch 3.3.3 (12081) - http://www.bohemiancoding.com/sketch -->
    <title>Liquidator aquamarine + Liquidator yellow + Liquidator Orange</title>
    <desc>Created with Sketch.</desc>
    <defs>
        <path d="M59.0615395,52.3360526 C64.0981864,60.1562406 71.7840797,72.436592 71.7840797,74.5533944 C71.7840797,77.7017828 63.3336052,69.5990992 55.9166538,77.1111933 C48.4997024,84.6232874 16.9652865,102.547509 3.16490685,75.1601995 C2.54069495,72.9422736 3.45370611,71.2687218 4.36071429,70.2356801 C0.663143092,61.9411888 0.844635032,50.833872 0.844635032,39.7640862 C0.844635032,17.8029878 8.77793556,0.748478357 30.4068612,0.748478357 C58.7186315,0.748478357 59.9690873,17.8029878 59.9690873,39.7640862 C59.9690873,44.0025345 59.6820042,48.2465298 59.0615395,52.3360526 Z" id="path-1"></path>
        <path d="M69.9255149,59.885455 C75.8886193,68.8336942 84.9882812,82.885469 84.9882812,85.3076172 C84.9882812,88.9101562 74.9833984,79.6386719 66.2021484,88.234375 C57.4208984,96.8300781 20.0859375,117.339844 3.74707031,86.0019531 C3.0080388,83.4640944 4.08899226,81.5491351 5.16283853,80.3670787 C0.785123831,70.8761186 1,58.1665869 1,45.5 C1,20.3710439 10.3925781,0.856445312 36,0.856445312 C69.5195312,0.856445312 71,20.3710439 71,45.5 C71,50.3498386 70.6601099,55.2060242 69.9255149,59.885455 Z" id="path-3"></path>
        <path d="M69.9255149,59.885455 C75.8886193,68.8336942 84.9882812,82.885469 84.9882812,85.3076172 C84.9882812,88.9101562 74.9833984,79.6386719 66.2021484,88.234375 C57.4208984,96.8300781 20.0859375,117.339844 3.74707031,86.0019531 C3.0080388,83.4640944 4.08899226,81.5491351 5.16283853,80.3670787 C0.785123831,70.8761186 1,58.1665869 1,45.5 C1,20.3710439 10.3925781,0.856445312 36,0.856445312 C69.5195312,0.856445312 71,20.3710439 71,45.5 C71,50.3498386 70.6601099,55.2060242 69.9255149,59.885455 Z" id="path-5"></path>
        <linearGradient x1="50%" y1="132.235775%" x2="50%" y2="30.3139741%" id="linearGradient-7">
            <stop stop-color="#87B33A" offset="0%"></stop>
            <stop stop-color="#B4ED50" offset="100%"></stop>
        </linearGradient>
    </defs>
    <g id="Page-2" stroke="none" stroke-width="1" fill="none" fill-rule="evenodd" sketch:type="MSPage">
        <g id="Desktop" sketch:type="MSArtboardGroup" transform="translate(-963.000000, -273.000000)">
            <g id="Liquidator-aquamarine-+-Liquidator-yellow-+-Liquidator-Orange" sketch:type="MSLayerGroup" transform="translate(961.000000, 273.000000)">
                <g id="Liquidator-aquamarine" transform="translate(0.000000, 7.000000)">
                    <g id="Guantes" transform="translate(0.000000, 124.000000)" sketch:type="MSShapeGroup">
                        <path d="M21.5966896,14.4772493 C29.6370837,16.6316664 36.9256257,15.5025663 37.8761039,11.9553336 C38.826582,8.40810093 33.0790695,3.78600054 25.0386754,1.63158344 C16.9982814,-0.522833662 9.70973934,0.606266456 8.75926121,4.15349914 C7.80878308,7.70073182 13.5562956,12.3228322 21.5966896,14.4772493 Z" id="Oval-3-Copy" fill="#104A57"></path>
                        <path d="M22.9704988,29.1784997 C21.5450656,30.6513212 9.08161658,24.3961741 9.08161658,24.3961741 L10.532917,4.8357825 L34.8431795,13.2064772 C34.8431795,13.2064772 30.1865782,19.3586485 22.9704988,29.1784997 Z" id="Triangle-1-Copy" fill="#104A57"></path>
                        <path d="M10.321404,24.1062776 C10.321404,24.1062776 4.29431263,25.0441079 3.24855251,28.6911068 C2.20279239,32.3381058 1.64681986,36.8925672 1.97207293,38.5768455 C2.29732599,40.2611239 4.75756109,41.7718828 6.40494106,39.84795 C7.7286539,37.1178531 7.75480665,33.0570661 7.75480665,33.0570661 C7.75480665,33.0570661 8.01508676,32.9739036 7.15493953,38.4032444 C6.61893378,40.2725186 10.3095542,42.8149148 11.6267024,40.1991257 C12.9438507,37.5833366 12.581277,36.5183238 12.9437298,36.6222554 C13.3061826,36.7261871 11.9741555,39.5906239 12.1344158,40.8126236 C12.2231275,41.4890597 12.8892264,42.5589806 13.8357786,42.9105485 C14.599198,43.1940973 15.4292824,43.1878013 15.983515,42.5945619 C15.983515,42.5945619 16.9873552,41.2226442 17.5530131,39.2499607 C17.8565817,37.3565405 18.3222757,37.5268333 17.807271,39.3228679 C17.2922664,41.1189026 17.5458177,40.9534885 17.9935674,41.5111709 C19.1330905,42.9304725 21.0011764,42.3735889 21.0011764,42.3735889 C21.0011764,42.3735889 22.7902468,41.1669269 23.9464684,35.7159853 C24.834088,31.5313528 23.95672,28.8871181 23.1239493,28.6483249 C21.2064035,28.0984775 10.321404,24.1062776 10.321404,24.1062776 Z" id="Path-13-Copy" fill="#104A57" transform="translate(13.098547, 33.599488) rotate(-7.000000) translate(-13.098547, -33.599488) "></path>
                        <path d="M10.2776498,6.43741197 C10.2776498,6.43741197 12.7894392,11.3163048 22.063496,13.9920355 C9.41045629,10.7169002 10.2776498,6.43741197 10.2776498,6.43741197 Z" id="Path-23" fill="#D8D8D8"></path>
                        <path d="M119.538205,24.8178884 C119.538205,24.8178884 114.15395,27.3661876 114.15395,31.1387035 C114.15395,34.9112194 114.855246,39.416871 115.610975,40.9376027 C116.366704,42.4583343 119.072252,43.2280587 120.096802,40.9376027 C120.60255,37.9653044 119.538205,34.0767318 119.538205,34.0767318 C119.538205,34.0767318 119.759286,33.9259058 120.410736,39.3511573 C120.410736,41.2847654 124.54338,42.703333 125.073638,39.8420923 C125.603896,36.9808516 124.97931,36.0622586 125.346093,36.0622586 C125.712876,36.0622586 125.235374,39.1652412 125.712876,40.289336 C125.977197,40.911577 126.886914,41.7516714 127.866264,41.8282794 C128.656136,41.8900657 129.430629,41.6565394 129.789809,40.9376027 C129.789809,40.9376027 130.360618,39.3511573 130.360618,37.3105809 C130.1368,35.4175996 130.617913,35.452733 130.617913,37.3105809 C130.617913,39.1684287 130.810648,38.9408287 131.378851,39.3511573 C132.824928,40.3954434 134.422392,39.3511573 134.422392,39.3511573 C134.422392,39.3511573 135.771749,37.7074528 135.391355,32.1804069 C135.099331,27.93735 133.569951,25.6503902 132.727231,25.6503902 C130.786777,25.6503902 119.538205,24.8178884 119.538205,24.8178884 Z" id="Path-13" fill="#104A57" transform="translate(124.806447, 33.599488) rotate(9.000000) translate(-124.806447, -33.599488) "></path>
                        <path d="M132.774378,28.9796661 C131.962121,30.8402816 118.487728,29.2290406 118.487728,29.2290406 L113.29947,10.4567785 L138.305962,10.0202886 C138.305962,10.0202886 136.09903,17.3514862 132.774378,28.9796661 Z" id="Triangle-1" fill="#104A57"></path>
                        <path d="M124.661211,13.7622775 C132.758374,13.7622775 139.322422,10.8020724 139.322422,7.15047422 C139.322422,3.49887607 132.758374,0.538670896 124.661211,0.538670896 C116.564048,0.538670896 110,3.49887607 110,7.15047422 C110,10.8020724 116.564048,13.7622775 124.661211,13.7622775 Z" id="Oval-3" fill="#104A57"></path>
                        <path d="M112.746324,9.78195543 C112.746324,9.78195543 122.759566,13.7464508 131.893033,11.4003847 C119.625169,14.9203505 112.746324,9.78195543 112.746324,9.78195543 Z" id="Path-23-Copy" fill="#D8D8D8"></path>
                    </g>
                    <path d="M75.1017136,153.675035 C75.5258803,153.673832 75.9560232,153.670963 76.3922184,153.666416 C76.7658118,153.662521 77.1350569,153.658056 77.5,153.653016 L77.5,153.653016 L77.5,169.497226 L77.5,204.304838 C77.5,206.496779 79.2885974,208.297187 81.4949442,208.297187 L106.085029,208.297187 C108.281925,208.297187 110.062089,206.50656 110.040029,204.297709 C110.040029,204.297709 109.984099,191.084508 109.185596,173.864913 C108.514193,159.386224 106.623535,142.864788 106.623535,130.874023 C105.989062,130.892882 105.360294,130.916412 104.738019,130.94415 C103.867113,126.544243 103.058522,121.376092 103.058522,115.333206 C103.058522,109.57996 103.376299,104.601032 103.614817,100.315569 L103.614817,100.315569 C104.865709,101.987872 105.884499,103.694235 106.489229,105.355717 C110.1903,115.524326 112.750885,128.279895 112.750885,128.279895 C113.225597,130.445797 115.365099,132.474326 117.547759,132.815495 C117.547759,132.815495 117.570752,133.017667 124.561427,133.497544 C131.552102,133.97742 132.589997,133.118154 132.589997,133.118154 C134.753504,132.678595 136.041229,130.454437 135.509505,128.317674 C135.509505,128.317674 130.660645,108.387244 127.159582,98.7681519 C123.820206,89.5932917 114.979699,71.8735502 114.979699,71.8735502 C114.010019,69.896172 111.674978,69.2011334 109.775381,70.3281229 L95.2776278,78.9293269 C91.1472094,77.5883253 85.1211017,77 76.3922184,77 C67.3734922,77 61.3306604,78.156235 57.3264835,80.2386893 L51.638203,74.5014857 C50.0830942,72.9330019 47.5894909,72.9562932 46.0749457,74.5793375 C46.0749457,74.5793375 39.8248181,80.9448504 34.0858697,88.8438353 C28.0690507,97.1252761 12.3702808,125.816821 12.3702808,125.816821 C11.3107965,127.73931 11.9324692,130.306856 13.8168548,131.473955 C13.8168548,131.473955 24.2866266,139.474966 32.6313959,135.335893 C36.2610451,133.535557 36.2974714,128.322442 38.5665697,124.405732 C41.5142571,119.317705 43.9131664,115.864767 47.507123,110.91811 C48.3301004,109.785379 49.4447358,108.717676 50.7429023,107.721519 L50.7429023,107.721519 C50.9285886,110.181645 51.0714239,112.727054 51.0714239,115.333206 C51.0714239,125.62177 46.3521845,135.075175 46.7002545,142.021054 C45.7101807,149.394829 44.1040588,161.981561 43.5744362,169.762658 C42.7138653,182.405973 42.7049458,207.066147 42.7049458,207.066147 C42.6957635,209.277964 44.4800697,211.070941 46.6864205,211.070941 L69.0162328,211.070941 C71.2277426,211.070941 73.0971631,209.284441 73.2032233,207.080681 C73.2032233,207.080681 74.628674,178.744142 75.1017136,153.675035 Z" id="Oval-2" fill="#91BEAE" sketch:type="MSShapeGroup"></path>
                    <path d="M54.2271484,137 C54.2271484,137 71.2369141,155.658203 96.2291016,138.835938 C67.3931641,147.007812 54.2271484,137 54.2271484,137 Z" id="Path-8" fill-opacity="0.2" fill="#000000" sketch:type="MSShapeGroup"></path>
                    <path d="M60.1240348,149 C60.1240348,149 66.7085477,153.579559 79.6001953,153.579559 C69.8621151,151.998616 60.1240348,149 60.1240348,149 Z" id="Path-9" fill-opacity="0.2" fill="#000000" sketch:type="MSShapeGroup"></path>
                    <path d="M100.687701,90.9328327 C100.687701,90.9328327 110.29024,102.690645 111.127154,121.132051 C105.907428,100.171602 100.687701,90.9328327 100.687701,90.9328327 Z" id="Path-10" fill-opacity="0.2" fill="#000000" sketch:type="MSShapeGroup" transform="translate(105.907428, 106.032442) rotate(-10.000000) translate(-105.907428, -106.032442) "></path>
                    <path d="M50.1152344,122.180311 C50.1152344,122.180311 48.3398438,104.631483 55.8027344,92.9449598 C51.7436524,108.81459 50.1152344,122.180311 50.1152344,122.180311 Z" id="Path-12" fill-opacity="0.2" fill="#000000" sketch:type="MSShapeGroup" transform="translate(52.866717, 107.562636) rotate(-6.000000) translate(-52.866717, -107.562636) "></path>
                    <path d="M106.673006,118.767093 C105.61897,118.510174 102.782381,129.595218 102.782381,129.595218 C102.782381,129.595218 99.961295,217.777779 104.45035,244.789554 C114.45865,243.507328 119.766269,239.400638 121.331698,238.555179 C122.218905,221.168216 111.459139,220.980716 109.69742,218.696292 C109.69742,214.555667 110.705691,196.081058 110.371004,196.081058 L109.69742,196.081058 L109.007812,170.100586 C109.007812,170.100586 106.422029,136.818116 106.673006,130.929688 C107.116853,128.940674 107.267732,119.638675 106.673006,118.767093 Z" id="Path-18" fill-opacity="0.2" fill="#000000" sketch:type="MSShapeGroup"></path>
                    <path d="M103.394045,53.4888987 C108.430691,61.3090867 116.116585,73.5894381 116.116585,75.7062405 C116.116585,78.8546289 107.66611,70.7519453 100.249159,78.2640394 C92.8322074,85.7761334 61.2977915,103.700355 47.4974119,76.3130456 C46.8732,74.0951196 47.7862111,72.4215678 48.6932193,71.3885262 C44.9956481,63.0940348 45.17714,51.986718 45.17714,40.9169323 C45.17714,18.9558339 53.1104406,1.90132443 74.7393662,1.90132443 C103.051137,1.90132443 104.301592,18.9558339 104.301592,40.9169323 C104.301592,45.1553806 104.014509,49.3993759 103.394045,53.4888987 Z" id="Mask-Copy" fill-opacity="0.3" fill="#000000" sketch:type="MSShapeGroup"></path>
                    <g id="Casco" transform="translate(44.331055, 0.153453)">
                        <mask id="mask-2" sketch:name="Mask" fill="white">
                            <use xlink:href="#path-1"></use>
                        </mask>
                        <g id="Mask">
                            <use fill="#91BEAE" fill-rule="evenodd" sketch:type="MSShapeGroup" xlink:href="#path-1"></use>
                            <use stroke="none" fill="none" xlink:href="#path-1"></use>
                        </g>
                        <path d="M-0.0628846067,24.5596548 C-0.0628846067,24.5596548 13.4762167,20.2454224 28.1208572,20.7147497 C29.8429848,20.76994 31.5804002,20.8912794 33.3128847,21.0935623 C35.9381665,21.4000873 38.5521258,21.8924762 41.0844109,22.6222063 C45.544694,38.3684326 45.0583139,57.4654474 45.0583152,63.8178724 C34.7310222,72.4312708 7.52533937,71.4439744 2.15627293,66.4677491 C-2.06236173,58.7621579 -0.0628846067,24.5596548 -0.0628846067,24.5596548 Z" id="Path-Copy-2" fill-opacity="0.49963202" fill="#FA6A31" sketch:type="MSShapeGroup" mask="url(#mask-2)"></path>
                        <path d="M-0.482443227,47.0518005 C-0.296002715,56.4962154 0.418763322,65.8158209 2.34501699,69.593125 C8.09043251,75.3099793 37.2031198,76.4442184 48.2543128,66.5488579 C48.2543114,59.2509793 48.7747847,37.3116892 44.0018544,19.2218971 C24.2968656,13.1256817 -0.0296942004,21.4477028 -0.0296942004,21.4477028 C-0.0296942004,21.4477028 -0.546118613,30.9315082 -0.53624537,41.6303079 C-0.538054549,43.4103296 -0.522420789,45.2344834 -0.482443316,47.0517964 Z M-0.482443227,47.0518005 C-0.518280274,45.2364228 -0.534597067,43.4164337 -0.53624537,41.6303079 C-0.527006442,32.5402785 -0.0628846067,24.6011387 -0.0628846067,24.6011387 C-0.0628846067,24.6011387 22.6701823,17.3572507 41.0844109,22.6636902 C45.544694,38.4099164 45.0583139,57.5069312 45.0583152,63.8593562 C34.7310222,72.4727547 7.52533937,71.4854583 2.15627293,66.509233 C0.368140345,63.2431007 -0.302835457,55.2164872 -0.482443316,47.0517964 Z" id="Path-1" fill="#424242" sketch:type="MSShapeGroup" mask="url(#mask-2)"></path>
                        <path d="M26.5057856,20.665513 L13.3508424,38.5820537 L21.9176192,45.770689 L3.49154306,67.1513958 L8.67895489,68.8915866 L28.6474798,44.7785498 L19.5746643,37.5929016 C19.5746643,37.5929016 31.3284006,23.5399182 32.3390463,21.2834131" id="Path-19" fill-opacity="0.5" fill="#D8D8D8" sketch:type="MSShapeGroup" mask="url(#mask-2)"></path>
                    </g>
                    <g id="Zapatos" transform="translate(23.000000, 197.000000)" sketch:type="MSShapeGroup">
                        <path d="M59.3000488,41.4445801 L66.7644043,38.9573364 L66.5177793,30.4299927 L59.3000488,33.8601074 L59.3000488,41.4445801 Z" id="Path-17" fill="#B1A49A"></path>
                        <path d="M52.4356806,37.9502722 L53.0660517,0 C53.0660517,0 69.9716647,9.79948008 87.9521334,1.47037809 C87.9521334,13.580766 87.9521348,23.6662925 87.9521348,23.6662925 C87.9521348,23.6662925 107.320299,28.5367889 104.503893,42.1727739 C76.6502073,59.0908782 59.4560411,35.8583382 59.4560411,35.8583382 L59.4560411,42.1727739 L52.4356806,37.9502722 Z" id="Path-6" fill="#424242"></path>
                        <path d="M45.4633789,41.4663086 L38.6083984,38.6591797 L38.8217773,30.8730469 L45.4633789,34.6108398 L45.4633789,41.4663086 Z" id="Path-16" fill="#B1A49A"></path>
                        <path d="M0.103508636,37.9502722 L0.73387973,0 C0.73387973,0 16.3575484,8.329102 34.3380172,0 C34.3380172,12.1103879 34.3380186,22.6279108 34.3380186,22.6279108 C34.3380186,22.6279108 54.9881269,28.5367889 52.1717207,42.1727739 C24.3180353,59.0908782 7.12386911,35.8583382 7.12386911,35.8583382 L7.12386911,42.1727739 L0.103508636,37.9502722 Z" id="Path-6-Copy" fill="#424242" transform="translate(26.269595, 24.171862) scale(-1, 1) translate(-26.269595, -24.171862) "></path>
                        <path d="M18.2853499,19.9189243 C18.2853499,19.9189243 26.6440183,26.566091 23.9479476,34.2602329 C24.6530257,34.2602329 28.811411,27.0895786 18.2853499,19.9189243 Z" id="Path-15" fill-opacity="0.2" fill="#D8D8D8" transform="translate(21.816653, 27.089579) rotate(-46.000000) translate(-21.816653, -27.089579) "></path>
                        <path d="M75.1214187,18.42469 C75.1214187,18.42469 83.480087,25.0718567 80.7840163,32.7659986 C81.4890945,32.7659986 85.6474797,25.5953443 75.1214187,18.42469 Z" id="Path-15-Copy" fill-opacity="0.2" fill="#D8D8D8" transform="translate(78.652722, 25.595344) rotate(-101.000000) translate(-78.652722, -25.595344) "></path>
                    </g>
                    <path d="M92.1007747,11.5513188 C86.7764396,4.29782098 75.0373324,0.919853376 75.0373324,0.919853376 C75.0373324,0.919853376 95.2343384,-0.947928704 101.540232,14.9685446 C105.061882,28.5000433 104.673795,34.8254109 103.425814,52.4551913 C107.967376,59.850789 107.646926,59.2836714 115.948104,73.3852767 C124.203505,91.3261408 125.252931,92.0454124 133.517092,121.211916 L134.169924,123.531252 C134.169924,123.531252 130.367526,125.642209 126.226422,126.180311 C123.507341,107.388981 112.469162,74.4559748 108.282053,73.9698921 C106.173352,65.6231209 99.0475686,60.7938547 97.4251098,53.6888577 C96.7491551,46.845016 97.4251098,18.8048165 92.1007747,11.5513188 Z" id="Path-14" fill-opacity="0.2" fill="#000000" sketch:type="MSShapeGroup"></path>
                    <path d="M55.2568359,75.8222656 C55.2568359,75.8222656 71.0537109,91.015625 89.3310547,77.7382812 C70.0913086,87.2534178 55.2568359,75.8222656 55.2568359,75.8222656 Z" id="Path-69" fill-opacity="0.2" fill="#000000" sketch:type="MSShapeGroup" transform="translate(72.293945, 79.501379) rotate(-3.000000) translate(-72.293945, -79.501379) "></path>
                </g>
                <g id="Liquidator-yellow" transform="translate(80.000000, 0.000000)">
                    <g id="Guantes" transform="translate(0.000000, 131.000000)" sketch:type="MSShapeGroup">
                        <path d="M127.659898,15.9319314 C128.639237,13.8377717 144.22811,15.9319313 144.22811,15.9319313 L149.86321,37.3254336 L120.86321,37.3254336 C120.86321,37.3254336 123.570165,29.0543563 127.659898,15.9319314 Z" id="Triangle-1" fill="#104A57" transform="translate(135.363210, 26.163314) rotate(-181.000000) translate(-135.363210, -26.163314) "></path>
                        <path d="M135,19 C144.388841,19 152,15.6421356 152,11.5 C152,7.35786438 144.388841,4 135,4 C125.611159,4 118,7.35786438 118,11.5 C118,15.6421356 125.611159,19 135,19 Z" id="Oval-3" fill="#104A57"></path>
                        <path d="M25.6381181,19.9070628 C35.0269589,19.9070628 42.6381181,16.5491984 42.6381181,12.4070628 C42.6381181,8.26492715 35.0269589,4.90706278 25.6381181,4.90706278 C16.2492774,4.90706278 8.63811811,8.26492715 8.63811811,12.4070628 C8.63811811,16.5491984 16.2492774,19.9070628 25.6381181,19.9070628 Z" id="Oval-3-Copy" fill="#104A57" transform="translate(25.638118, 12.407063) rotate(15.000000) translate(-25.638118, -12.407063) "></path>
                        <path d="M13.5905979,13.820048 C14.5699371,11.7258883 30.15881,13.8200479 30.15881,13.8200479 L35.7939101,35.2135502 L6.79391005,35.2135502 C6.79391005,35.2135502 9.50086458,26.9424729 13.5905979,13.820048 Z" id="Triangle-1-Copy" fill="#104A57" transform="translate(21.293910, 24.051430) rotate(-161.000000) translate(-21.293910, -24.051430) "></path>
                        <path d="M128.79126,30.9628906 C128.79126,30.9628906 122.548096,33.8535156 122.548096,38.1328125 C122.548096,42.4121094 123.361264,47.5230277 124.237549,49.2480469 C125.113834,50.973066 128.250977,51.8461914 129.438965,49.2480469 C130.025391,45.8764648 128.79126,41.4655209 128.79126,41.4655209 C128.79126,41.4655209 129.047607,41.2944336 129.802979,47.4484863 C129.802979,49.6418457 134.594871,51.2509766 135.209717,48.0053711 C135.824563,44.7597656 135.100342,43.7177734 135.525635,43.7177734 C135.950928,43.7177734 135.397253,47.2375952 135.950928,48.5126953 C136.257413,49.2185251 137.312251,50.1714736 138.447829,50.2583727 C139.363703,50.3284591 140.261745,50.063562 140.678223,49.2480469 C140.678223,49.2480469 141.340088,47.4484863 141.340088,45.1337891 C141.080566,42.9865141 141.638428,43.0263672 141.638428,45.1337891 C141.638428,47.2412109 141.861908,46.9830363 142.520752,47.4484863 C144.19751,48.6330566 146.049805,47.4484863 146.049805,47.4484863 C146.049805,47.4484863 147.614415,45.5839748 147.17334,39.3144531 C146.834731,34.5014051 145.061381,31.9072266 144.084229,31.9072266 C141.834229,31.9072266 128.79126,30.9628906 128.79126,30.9628906 Z" id="Path-13" fill="#104A57"></path>
                        <path d="M9.4602357,30.3648842 C9.4602357,30.3648842 3.21707164,33.2555092 3.21707164,37.5348061 C3.21707164,41.814103 4.03023972,46.9250214 4.90652476,48.6500405 C5.78280981,50.3750596 8.9199525,51.248185 10.1079408,48.6500405 C10.6943666,45.2784585 9.4602357,40.8675145 9.4602357,40.8675145 C9.4602357,40.8675145 9.71658336,40.6964272 10.4719544,46.8504799 C10.4719544,49.0438393 15.2638465,50.6529702 15.8786927,47.4073647 C16.493539,44.1617592 15.7693177,43.1197671 16.1946107,43.1197671 C16.6199037,43.1197671 16.0662293,46.6395888 16.6199037,47.9146889 C16.9263893,48.6205187 17.9812265,49.5734672 19.116805,49.6603663 C20.032679,49.7304527 20.9307213,49.4655556 21.3471986,48.6500405 C21.3471986,48.6500405 22.0090638,46.8504799 22.0090638,44.5357827 C21.7495423,42.3885077 22.3074037,42.4283608 22.3074037,44.5357827 C22.3074037,46.6432046 22.5308839,46.3850299 23.1897279,46.8504799 C24.8664857,48.0350503 26.7187806,46.8504799 26.7187806,46.8504799 C26.7187806,46.8504799 28.2833909,44.9859684 27.8423158,38.7164467 C27.5037069,33.9033987 25.7303567,31.3092202 24.7532044,31.3092202 C22.5032044,31.3092202 9.4602357,30.3648842 9.4602357,30.3648842 Z" id="Path-13-Copy" fill="#104A57" transform="translate(15.568879, 40.326160) rotate(16.000000) translate(-15.568879, -40.326160) "></path>
                        <path d="M11.7714222,9.50075371 C11.7714222,9.50075371 13.605893,15.4121154 23.3833009,20.2007049 C9.96997071,14.0844939 11.7714222,9.50075371 11.7714222,9.50075371 Z" id="Path-23" fill="#D8D8D8" transform="translate(17.536981, 14.850729) rotate(-10.000000) translate(-17.536981, -14.850729) "></path>
                        <path d="M123.363334,7.58573685 C123.363334,7.58573685 129.110096,18.4314772 138.887504,23.2200666 C125.474174,17.1038557 123.363334,7.58573685 123.363334,7.58573685 Z" id="Path-23-Copy" fill="#D8D8D8" transform="translate(131.125419, 15.402902) rotate(-41.000000) translate(-131.125419, -15.402902) "></path>
                    </g>
                    <path d="M79.94161,171.673135 C80.4546729,171.678066 80.9741206,171.675865 81.5,171.666416 L81.5,182.497226 L81.5,217.304838 C81.5,219.496779 83.2919078,221.297187 85.502338,221.297187 L116.972929,221.297187 C119.176519,221.297187 120.953598,219.50656 120.926869,217.297709 C120.926869,217.297709 120.859102,204.084508 119.891602,186.864913 C119.078102,172.386224 117.163629,155.68803 117.163629,143.697265 C117.136608,143.697928 117.109592,143.698598 117.082581,143.699277 C117.703815,140.412432 118,136.937765 118,133.333208 C118,131.078393 117.81463,128.869047 117.459021,126.721064 L117.459023,126.721076 C119.32142,133.393509 120.369115,138.773336 120.369115,138.773336 C120.838709,140.937556 122.907614,143.198158 125.012014,143.830497 C125.012014,143.830497 125.810612,144.838454 134.601563,144.663084 C143.392514,144.487714 145.937164,143.244171 145.937164,143.244171 C148.075625,142.694328 149.408776,140.422519 148.945443,138.277664 C148.945443,138.277664 144.725674,118.087843 141.22461,108.468751 C137.885234,99.2938913 128.406569,81.7914615 128.406569,81.7914615 C127.368028,79.8329037 124.952244,79.1086632 123.00967,80.1528668 L93.8757402,95.8134037 C93.3247924,96.109558 92.9291671,96.4600879 92.6892475,96.8347783 C89.1632023,95.6434208 85.4031473,95 81.5,95 C76.29268,95 71.3400515,96.1452328 66.8580116,98.2089579 L53.27637,84.9738581 C51.6968694,83.4346592 49.1602885,83.4648319 47.6333279,85.053585 C47.6333279,85.053585 41.239925,91.3402731 35.5009766,99.239258 C29.4841576,107.520699 14.1940888,136.509182 14.1940888,136.509182 C13.1613877,138.45113 13.7996013,141.0426 15.655994,142.227426 C15.655994,142.227426 27.8446689,151.427323 36.6132823,147.59619 C40.4272872,145.929797 40.1658446,140.500267 42.3891597,136.550294 C43.2971258,134.937189 44.1558733,133.489321 45.0182743,132.108534 L45.0182743,132.108534 C45.0061217,132.515193 45,132.92345 45,133.333208 C45,138.523122 45.6140157,143.500526 46.9282027,148.050761 C46.7727445,148.356188 46.6579072,148.706639 46.5917117,149.098814 C46.5917117,149.098814 42.7627577,171.222969 41.8095703,182.762658 C40.7652226,195.405973 40.7543983,220.066147 40.7543983,220.066147 C40.7432551,222.277964 42.5323546,224.070941 44.7457496,224.070941 L73.5248977,224.070941 C75.7330178,224.070941 77.6369436,222.284441 77.7656532,220.080681 C77.7656532,220.080681 79.2746719,195.361691 79.94161,171.673135 Z" id="Oval-2" fill="#FFCD55" sketch:type="MSShapeGroup"></path>
                    <path d="M59.2271484,150 C59.2271484,150 76.2369141,168.658203 101.229102,151.835938 C72.3931641,160.007812 59.2271484,150 59.2271484,150 Z" id="Path-8" fill-opacity="0.2" fill="#000000" sketch:type="MSShapeGroup"></path>
                    <path d="M61.2271484,160.269989 C61.2271484,160.269989 70.4814457,171.579559 88.6001953,171.579559 C74.9136719,167.675299 61.2271484,160.269989 61.2271484,160.269989 Z" id="Path-9" fill-opacity="0.2" fill="#000000" sketch:type="MSShapeGroup"></path>
                    <path d="M108.206055,98.7255859 C108.206055,98.7255859 117.808594,110.483398 118.645508,128.924805 C113.425781,107.964355 108.206055,98.7255859 108.206055,98.7255859 Z" id="Path-10" fill-opacity="0.2" fill="#000000" sketch:type="MSShapeGroup"></path>
                    <path d="M45.1152344,131.762695 C45.1152344,131.762695 43.3398438,114.213867 50.8027344,102.527344 C46.7436524,118.396974 45.1152344,131.762695 45.1152344,131.762695 Z" id="Path-12" fill-opacity="0.2" fill="#000000" sketch:type="MSShapeGroup"></path>
                    <path d="M114.927232,61.0290097 C120.890336,69.9772489 129.989998,84.0290237 129.989998,86.4511719 C129.989998,90.0537109 119.985116,80.7822266 111.203866,89.3779297 C102.422616,97.9736328 65.0876546,118.483398 48.7487874,87.1455078 C48.0097559,84.6076491 49.0907093,82.6926898 50.1645556,81.5106334 C45.7868409,72.0196732 46.0017171,59.3101415 46.0017171,46.6435547 C46.0017171,21.5145986 55.3942952,2 81.0017171,2 C114.521248,2 116.001717,21.5145986 116.001717,46.6435547 C116.001717,51.4933932 115.661827,56.3495789 114.927232,61.0290097 Z" id="Mask-Copy" fill-opacity="0.3" fill="#000000" sketch:type="MSShapeGroup"></path>
                    <path d="M117.851562,131.765625 C116.797526,131.508706 113.960937,142.59375 113.960937,142.59375 C113.960937,142.59375 111.139852,230.776311 115.628906,257.788086 C125.637207,256.505859 130.944825,252.39917 132.510255,251.553711 C133.397462,234.166748 122.637695,233.979248 120.875977,231.694824 C120.875977,227.554199 121.884248,209.07959 121.549561,209.07959 L120.875977,209.07959 L119.636475,182.577881 C119.636475,182.577881 116.794922,149.234131 117.045898,143.345703 C117.489746,141.35669 118.446289,132.637207 117.851562,131.765625 Z" id="Path-18" fill-opacity="0.2" fill="#000000" sketch:type="MSShapeGroup"></path>
                    <g id="Casco" transform="translate(45.000000, 0.000000)">
                        <mask id="mask-4" sketch:name="Mask" fill="white">
                            <use xlink:href="#path-3"></use>
                        </mask>
                        <use id="Mask" fill="#FFCD55" sketch:type="MSShapeGroup" xlink:href="#path-3"></use>
                        <path d="M-0.0744518097,28.1023506 C-0.0744518097,28.1023506 15.9550767,23.1657963 33.2935009,23.7028234 C35.3324023,23.7659748 37.3894037,23.9048172 39.4405671,24.1362792 C42.5487519,24.4870199 45.6435316,25.0504352 48.6416136,25.8854279 C53.922336,43.9030253 53.3464895,65.7547577 53.3464911,73.0235112 C41.1195616,82.8793802 8.90957523,81.7496677 2.55290492,76.0556289 C-2.44171939,67.2385169 -0.0744518097,28.1023506 -0.0744518097,28.1023506 Z" id="Path-Copy-2" fill-opacity="0.729449728" fill="#91BEAE" sketch:type="MSShapeGroup" mask="url(#mask-4)"></path>
                        <path d="M-0.571185433,53.8389568 C-0.350450437,64.6457154 0.495792034,75.309661 2.77636719,79.6318359 C9.57861348,86.1733384 44.046385,87.4711899 57.1303711,76.1484375 C57.1303694,67.7978501 57.7465803,42.6938481 52.0957014,21.9946289 C28.7661116,15.0190429 -0.03515625,24.5415039 -0.03515625,24.5415039 C-0.03515625,24.5415039 -0.646573482,35.393335 -0.634884121,47.6354215 C-0.637026086,49.6722089 -0.618516601,51.7594943 -0.571185539,53.8389522 Z M-0.571185433,53.8389568 C-0.613614466,51.7617135 -0.632932624,49.6791935 -0.634884121,47.6354215 C-0.623945754,37.2341681 -0.0744518097,28.1498185 -0.0744518097,28.1498185 C-0.0744518097,28.1498185 26.8402108,19.8610098 48.6416136,25.9328958 C53.922336,43.9504931 53.3464895,65.8022256 53.3464911,73.070979 C41.1195616,82.9268481 8.90957523,81.7971356 2.55290492,76.1030968 C0.4358573,72.3658295 -0.358540015,63.1813882 -0.571185539,53.8389522 Z" id="Path-1" fill="#424242" sketch:type="MSShapeGroup" mask="url(#mask-4)"></path>
                        <path d="M31.3813477,23.6464844 L15.8066406,44.1474609 L25.9492188,52.3730469 L4.13378906,76.8378906 L10.2753906,78.8291016 L33.9169922,51.237793 L23.175293,43.015625 C23.175293,43.015625 37.0910505,26.9355185 38.2875977,24.3535156" id="Path-19" fill-opacity="0.5" fill="#D8D8D8" sketch:type="MSShapeGroup" mask="url(#mask-4)"></path>
                    </g>
                    <g id="Zapatos" transform="translate(28.000000, 204.000000)" sketch:type="MSShapeGroup">
                        <path d="M59.3000488,47.4445801 L66.7644043,44.9573364 L66.5177793,36.4299927 L59.3000488,39.8601074 L59.3000488,47.4445801 Z" id="Path-17" fill="#B1A49A"></path>
                        <path d="M52.4356806,42.7840712 L53.0660517,0.575575103 C53.0660517,0.575575103 75.5631235,14.1195204 93.5435922,4.85584854 C93.5435922,18.3250868 92.9521348,27.8973524 92.9521348,27.8973524 C92.9521348,27.8973524 107.320299,32.3143446 104.503893,47.4803603 C76.6502073,66.2967665 59.4560411,40.457411 59.4560411,40.457411 L59.4560411,47.4803603 L52.4356806,42.7840712 Z" id="Path-6" fill="#424242"></path>
                        <path d="M45.4633789,47.4663086 L38.6083984,44.6591797 L38.8217773,36.8730469 L45.4633789,40.6108398 L45.4633789,47.4663086 Z" id="Path-16" fill="#B1A49A"></path>
                        <path d="M0.00159845288,42.7840712 L0.631969547,0.575575103 C0.631969547,0.575575103 22.5375825,11.9941406 40.5180512,2.73046874 C40.5180512,16.199707 40.5180527,27.8973524 40.5180527,27.8973524 C40.5180527,27.8973524 54.8862167,32.3143446 52.0698105,47.4803603 C24.2161251,66.2967665 7.02195892,40.457411 7.02195892,40.457411 L7.02195892,47.4803603 L0.00159845288,42.7840712 Z" id="Path-6-Copy" fill="#424242" transform="translate(26.218640, 27.459650) scale(-1, 1) translate(-26.218640, -27.459650) "></path>
                        <path d="M18.2853499,25.9189243 C18.2853499,25.9189243 26.6440183,32.566091 23.9479476,40.2602329 C24.6530257,40.2602329 28.811411,33.0895786 18.2853499,25.9189243 Z" id="Path-15" fill-opacity="0.2" fill="#D8D8D8" transform="translate(21.816653, 33.089579) rotate(-46.000000) translate(-21.816653, -33.089579) "></path>
                        <path d="M75.1214187,24.42469 C75.1214187,24.42469 83.480087,31.0718567 80.7840163,38.7659986 C81.4890945,38.7659986 85.6474797,31.5953443 75.1214187,24.42469 Z" id="Path-15-Copy" fill-opacity="0.2" fill="#D8D8D8" transform="translate(78.652722, 31.595344) rotate(-101.000000) translate(-78.652722, -31.595344) "></path>
                    </g>
                    <path d="M101.556641,13.0419925 C95.2529297,4.74218783 81.3544922,0.876953125 81.3544922,0.876953125 C81.3544922,0.876953125 105.266602,-1.26025391 112.732423,16.9521484 C116.901857,32.4355469 116.442384,39.6733398 114.964845,59.8461914 C120.341798,68.3085938 119.962402,67.6596702 129.790527,83.7954124 C139.564453,104.324221 141.999512,105.7251 149.187012,138.678225 L149.187012,141.153323 C149.187012,141.153323 146.862305,143.590334 141.959473,144.206057 C138.740234,122.704104 125.671657,85.0205572 120.714356,84.4643577 C118.217774,74.9135765 109.781251,69.3876953 107.860352,61.2578125 C107.06006,53.4267562 107.860352,21.3417972 101.556641,13.0419925 Z" id="Path-14" fill-opacity="0.2" fill="#000000" sketch:type="MSShapeGroup"></path>
                </g>
                <g id="Liquidator-Orange" transform="translate(178.000000, 8.000000)">
                    <g id="Guantes" transform="translate(97.000000, 135.000000)" sketch:type="MSShapeGroup">
                        <path d="M9.65989802,11.9319314 C10.6392371,9.8377717 26.2281101,11.9319313 26.2281101,11.9319313 L31.8632101,33.3254336 L2.86321013,33.3254336 C2.86321013,33.3254336 5.57016466,25.0543563 9.65989802,11.9319314 Z" id="Triangle-1" fill="#104A57" transform="translate(17.363210, 22.163314) rotate(-181.000000) translate(-17.363210, -22.163314) "></path>
                        <path d="M17,15 C26.3888407,15 34,11.6421356 34,7.5 C34,3.35786438 26.3888407,0 17,0 C7.61115925,0 0,3.35786438 0,7.5 C0,11.6421356 7.61115925,15 17,15 Z" id="Oval-3" fill="#104A57"></path>
                        <path d="M10.7912598,26.9628906 C10.7912598,26.9628906 4.5480957,29.8535156 4.5480957,34.1328125 C4.5480957,38.4121094 5.36126378,43.5230277 6.23754883,45.2480469 C7.11383387,46.973066 10.2509766,47.8461914 11.4389648,45.2480469 C12.0253906,41.8764648 10.7912598,37.4655209 10.7912598,37.4655209 C10.7912598,37.4655209 11.0476074,37.2944336 11.8029785,43.4484863 C11.8029785,45.6418457 16.5948706,47.2509766 17.2097168,44.0053711 C17.824563,40.7597656 17.1003418,39.7177734 17.5256348,39.7177734 C17.9509277,39.7177734 17.3972534,43.2375952 17.9509277,44.5126953 C18.2574134,45.2185251 19.3122506,46.1714736 20.4478291,46.2583727 C21.3637031,46.3284591 22.2617453,46.063562 22.6782227,45.2480469 C22.6782227,45.2480469 23.3400879,43.4484863 23.3400879,41.1337891 C23.0805664,38.9865141 23.6384277,39.0263672 23.6384277,41.1337891 C23.6384277,43.2412109 23.861908,42.9830363 24.520752,43.4484863 C26.1975098,44.6330566 28.0498047,43.4484863 28.0498047,43.4484863 C28.0498047,43.4484863 29.6144149,41.5839748 29.1733398,35.3144531 C28.834731,30.5014051 27.0613808,27.9072266 26.0842285,27.9072266 C23.8342285,27.9072266 10.7912598,26.9628906 10.7912598,26.9628906 Z" id="Path-13" fill="#104A57"></path>
                        <path d="M6.6928293,7.68375853 C6.6928293,7.68375853 8.52730009,13.5951202 18.304708,18.3837097 C4.89137785,12.2674988 6.6928293,7.68375853 6.6928293,7.68375853 Z" id="Path-23" fill="#D8D8D8" transform="translate(12.458388, 13.033734) rotate(-39.000000) translate(-12.458388, -13.033734) "></path>
                    </g>
                    <path d="M9.74403005,132.721189 C6.6364251,131.004093 4.44226682,129.362271 4.44226682,129.362271 C2.58825479,128.14214 0.928465653,125.351971 0.688946999,123.172151 C0.688946999,123.172151 -3.09828838,116.362355 14.4804675,96.3037111 C22.4760869,87.1801256 26.3742344,84.9153121 26.3742344,84.9153121 C28.1227776,83.5773579 30.9162487,83.7469228 32.5506814,85.2360982 L45.6266418,97.1499556 C50.3577103,95.8186431 55.4617292,95.2823654 60.6304579,95.2823654 C64.5262027,95.2823654 68.2790426,95.9247812 71.7981253,97.1142216 C72.0396445,96.7379082 72.4384124,96.3852198 72.994422,96.0863705 L102.023449,80.4835725 C103.970322,79.437149 106.396783,80.172978 107.429725,82.1209521 C107.429725,82.1209521 116.876533,99.562706 120.206768,108.712452 C123.698248,118.305213 127.899596,138.411932 127.899596,138.411932 C128.364998,140.566456 127.037776,142.844798 124.889607,143.396831 C124.889607,143.396831 122.366292,144.63371 113.597425,144.80932 C104.828557,144.984931 104.059916,143.985745 104.059916,143.985745 C101.945467,143.351988 99.8661139,141.079198 99.3987762,138.925577 C99.3987762,138.925577 98.3562129,133.570265 96.5012574,126.923284 L96.5012574,126.923284 C96.855261,129.063287 97.0397864,131.264339 97.0397864,133.510644 C97.0397864,137.105334 96.7443372,140.57049 96.1246462,143.848338 C96.1515901,143.84766 96.1785388,143.846993 96.2054931,143.846332 C96.2054931,155.804274 98.1152097,172.45676 98.9266889,186.895816 C99.8917862,204.068276 99.9593845,217.245309 99.9593845,217.245309 C99.9860475,219.448113 98.2133831,221.233838 96.0152665,221.233838 L64.6228535,221.233838 C62.4179143,221.233838 60.6304579,219.438358 60.6304579,217.236695 L60.6304579,182.540085 L60.6304579,171.738922 L60.6304579,171.738922 C60.1068928,171.748328 59.5885911,171.755203 59.0755511,171.759396 L59.0755511,171.759396 C58.4100729,195.378916 56.9053878,220.020662 56.9053878,220.020662 C56.7769979,222.21839 54.8778018,224 52.675167,224 L23.9675106,224 C21.7596141,224 19.9749589,222.211931 19.9861693,219.990347 C19.9861693,219.990347 19.9968718,195.413497 21.0386253,182.80479 C21.650269,175.401851 23.4479536,163.637091 24.6526603,156.185671 C22.7629117,151.595556 21.6959619,145.744069 21.4490033,138.327152 L13.9655649,134.77435 C12.7429893,134.26673 11.5637925,133.694826 10.4763711,133.117837 L10.2886784,133.028729 C10.1009595,132.939608 9.91912849,132.836563 9.74403005,132.721189 Z" id="Oval-2" fill="#FA6A31" sketch:type="MSShapeGroup"></path>
                    <path d="M33.9990234,153.56775 C33.9990234,153.56775 51.0087891,172.225953 76.0009766,155.403687 C52.65625,166.953125 33.9990234,153.56775 33.9990234,153.56775 Z" id="Path-8" fill-opacity="0.2" fill="#000000" sketch:type="MSShapeGroup"></path>
                    <path d="M41.4995117,149.02404 C41.4995117,149.02404 52.4342481,161.018475 68.5004883,150.204273 C53.4933191,157.628835 41.4995117,149.02404 41.4995117,149.02404 Z" id="Path-8-Copy" fill-opacity="0.2" fill="#000000" sketch:type="MSShapeGroup"></path>
                    <path d="M40.2271484,160.269989 C40.2271484,160.269989 49.4814457,171.579559 67.6001953,171.579559 C53.9136719,167.675299 40.2271484,160.269989 40.2271484,160.269989 Z" id="Path-9" fill-opacity="0.2" fill="#000000" sketch:type="MSShapeGroup"></path>
                    <path d="M87.2060547,98.7255859 C87.2060547,98.7255859 96.8085938,110.483398 97.6455078,128.924805 C92.4257812,107.964355 87.2060547,98.7255859 87.2060547,98.7255859 Z" id="Path-10" fill-opacity="0.2" fill="#000000" sketch:type="MSShapeGroup"></path>
                    <path d="M45.0458981,118.753906 C45.0458982,118.753906 30.2543946,117.800293 33.3422851,108.101074 C25.8056643,116.416015 41.4672851,118.753906 45.0458981,118.753906 Z" id="Path-12" fill-opacity="0.2" fill="#000000" sketch:type="MSShapeGroup"></path>
                    <path d="M21.5322266,138.291016 C21.5322266,138.291016 24.2963867,140.851074 28.6621094,142.883301 C37.7685547,147.226074 35.7919922,144.915527 35.7919922,144.915527 L21.5322266,138.291016 Z" id="Path-46" fill-opacity="0.2" fill="#000000" sketch:type="MSShapeGroup"></path>
                    <path d="M93.927232,61.0290097 C99.8903364,69.9772489 108.989998,84.0290237 108.989998,86.4511719 C108.989998,90.0537109 98.9851155,80.7822266 90.2038655,89.3779297 C81.4226155,97.9736328 44.0876546,118.483398 27.7487874,87.1455078 C27.0097559,84.6076491 28.0907093,82.6926898 29.1645556,81.5106334 C24.7868409,72.0196732 25.0017171,59.3101415 25.0017171,46.6435547 C25.0017171,21.5145986 34.3942952,2 60.0017171,2 C93.5212483,2 95.0017171,21.5145986 95.0017171,46.6435547 C95.0017171,51.4933932 94.661827,56.3495789 93.927232,61.0290097 Z" id="Mask-Copy" fill-opacity="0.2" fill="#000000" sketch:type="MSShapeGroup"></path>
                    <path d="M96.8515625,131.765625 C95.7975265,131.508706 92.9609375,142.59375 92.9609375,142.59375 C92.9609375,142.59375 90.1398516,230.776311 94.6289062,257.788086 C104.637207,256.505859 109.944825,252.39917 111.510255,251.553711 C112.397462,234.166748 101.637695,233.979248 99.8759766,231.694824 C99.8759766,227.554199 100.884248,209.07959 100.549561,209.07959 L99.8759766,209.07959 L98.6364746,182.577881 C98.6364746,182.577881 95.7949218,149.234131 96.0458984,143.345703 C96.4897461,141.35669 97.446289,132.637207 96.8515625,131.765625 Z" id="Path-18" fill-opacity="0.223901721" fill="#000000" sketch:type="MSShapeGroup"></path>
                    <g id="Casco" transform="translate(24.000000, 0.000000)">
                        <mask id="mask-6" sketch:name="Mask" fill="white">
                            <use xlink:href="#path-5"></use>
                        </mask>
                        <use id="Mask" fill="#FA6A31" sketch:type="MSShapeGroup" xlink:href="#path-5"></use>
                        <path d="M-0.0744518097,28.1023506 C-0.0744518097,28.1023506 15.9550767,23.1657963 33.2935009,23.7028234 C35.3324023,23.7659748 37.3894037,23.9048172 39.4405671,24.1362792 C42.5487519,24.4870199 45.6435316,25.0504352 48.6416136,25.8854279 C53.922336,43.9030253 53.3464895,65.7547577 53.3464911,73.0235112 C41.1195616,82.8793802 8.90957523,81.7496677 2.55290492,76.0556289 C-2.44171939,67.2385169 -0.0744518097,28.1023506 -0.0744518097,28.1023506 Z" id="Path-Copy-2" fill-opacity="0.729449728" fill="#91BEAE" sketch:type="MSShapeGroup" mask="url(#mask-6)"></path>
                        <path d="M-0.571185433,53.8389568 C-0.350450437,64.6457154 0.495792034,75.309661 2.77636719,79.6318359 C9.57861348,86.1733384 44.046385,87.4711899 57.1303711,76.1484375 C57.1303694,67.7978501 57.7465803,42.6938481 52.0957014,21.9946289 C28.7661116,15.0190429 -0.03515625,24.5415039 -0.03515625,24.5415039 C-0.03515625,24.5415039 -0.646573482,35.393335 -0.634884121,47.6354215 C-0.637026086,49.6722089 -0.618516601,51.7594943 -0.571185539,53.8389522 Z M-0.571185433,53.8389568 C-0.613614466,51.7617135 -0.632932624,49.6791935 -0.634884121,47.6354215 C-0.623945754,37.2341681 -0.0744518097,28.1498185 -0.0744518097,28.1498185 C-0.0744518097,28.1498185 26.8402108,19.8610098 48.6416136,25.9328958 C53.922336,43.9504931 53.3464895,65.8022256 53.3464911,73.070979 C41.1195616,82.9268481 8.90957523,81.7971356 2.55290492,76.1030968 C0.4358573,72.3658295 -0.358540015,63.1813882 -0.571185539,53.8389522 Z" id="Path-1" fill="#424242" sketch:type="MSShapeGroup" mask="url(#mask-6)"></path>
                        <path d="M31.3813477,23.6464844 L15.8066406,44.1474609 L25.9492188,52.3730469 L4.13378906,76.8378906 L10.2753906,78.8291016 L33.9169922,51.237793 L23.175293,43.015625 C23.175293,43.015625 37.0910505,26.9355185 38.2875977,24.3535156" id="Path-19" fill-opacity="0.5" fill="#D8D8D8" sketch:type="MSShapeGroup" mask="url(#mask-6)"></path>
                    </g>
                    <path d="M80.5566406,13.0419925 C74.2529297,4.74218783 60.3544922,0.876953125 60.3544922,0.876953125 C60.3544922,0.876953125 84.2666025,-1.26025391 91.7324228,16.9521484 C95.9018573,32.4355469 95.4423837,39.6733398 93.9648447,59.8461914 C99.3417978,68.3085938 98.9624023,67.6596702 108.790527,83.7954124 C118.564453,104.324221 120.999512,105.7251 128.187012,138.678225 L128.187012,141.153323 C128.187012,141.153323 125.862305,143.590334 120.959473,144.206057 C117.740234,122.704104 104.671657,85.0205572 99.7143564,84.4643577 C97.2177744,74.9135765 88.7812509,69.3876953 86.8603516,61.2578125 C86.0600595,53.4267562 86.8603516,21.3417972 80.5566406,13.0419925 Z" id="Path-14" fill-opacity="0.2" fill="#000000" sketch:type="MSShapeGroup"></path>
                    <g id="Zapatos" transform="translate(7.000000, 204.000000)" sketch:type="MSShapeGroup">
                        <path d="M59.3000488,47.4445801 L66.7644043,44.9573364 L66.5177793,36.4299927 L59.3000488,39.8601074 L59.3000488,47.4445801 Z" id="Path-17" fill="#B1A49A"></path>
                        <path d="M52.4356806,42.7840712 L53.0660517,0.575575103 C53.0660517,0.575575103 75.5631235,14.1195204 93.5435922,4.85584854 C93.5435922,18.3250868 92.9521348,27.8973524 92.9521348,27.8973524 C92.9521348,27.8973524 107.320299,32.3143446 104.503893,47.4803603 C76.6502073,66.2967665 59.4560411,40.457411 59.4560411,40.457411 L59.4560411,47.4803603 L52.4356806,42.7840712 Z" id="Path-6" fill="#424242"></path>
                        <path d="M45.4633789,47.4663086 L38.6083984,44.6591797 L38.8217773,36.8730469 L45.4633789,40.6108398 L45.4633789,47.4663086 Z" id="Path-16" fill="#B1A49A"></path>
                        <path d="M0.00159845288,42.7840712 L0.631969547,0.575575103 C0.631969547,0.575575103 22.5375825,11.9941406 40.5180512,2.73046874 C40.5180512,16.199707 40.5180527,27.8973524 40.5180527,27.8973524 C40.5180527,27.8973524 54.8862167,32.3143446 52.0698105,47.4803603 C24.2161251,66.2967665 7.02195892,40.457411 7.02195892,40.457411 L7.02195892,47.4803603 L0.00159845288,42.7840712 Z" id="Path-6-Copy" fill="#424242" transform="translate(26.218640, 27.459650) scale(-1, 1) translate(-26.218640, -27.459650) "></path>
                        <path d="M18.2853499,25.9189243 C18.2853499,25.9189243 26.6440183,32.566091 23.9479476,40.2602329 C24.6530257,40.2602329 28.811411,33.0895786 18.2853499,25.9189243 Z" id="Path-15" fill-opacity="0.2" fill="#D8D8D8" transform="translate(21.816653, 33.089579) rotate(-46.000000) translate(-21.816653, -33.089579) "></path>
                        <path d="M75.1214187,24.42469 C75.1214187,24.42469 79.4541747,27.8702809 80.8746185,32.6714757 C81.4270993,34.5388976 81.5390007,36.6113974 80.7840163,38.7659986 C81.4890945,38.7659986 85.6474797,31.5953443 75.1214187,24.42469 Z" id="Path-15-Copy" fill-opacity="0.2" fill="#D8D8D8" transform="translate(78.652722, 31.595344) rotate(-101.000000) translate(-78.652722, -31.595344) "></path>
                    </g>
                    <g id="Left-Globe" transform="translate(61.725041, 127.323257) rotate(-75.000000) translate(-61.725041, -127.323257) translate(34.225041, 102.323257)" sketch:type="MSShapeGroup">
                        <rect id="Rectangle-10" fill="url(#linearGradient-7)" transform="translate(28.144767, 40.883629) rotate(91.000000) translate(-28.144767, -40.883629) " x="24.1447667" y="14.3836289" width="8" height="53" rx="4"></rect>
                        <path d="M18.12048,16.2158921 C27.5093208,16.2158921 35.12048,12.8580277 35.12048,8.71589208 C35.12048,4.57375646 27.5093208,1.21589208 18.12048,1.21589208 C8.73163928,1.21589208 1.12048002,4.57375646 1.12048002,8.71589208 C1.12048002,12.8580277 8.73163928,16.2158921 18.12048,16.2158921 Z" id="Oval-3-Copy" fill="#104A57" transform="translate(18.120480, 8.715892) rotate(4.000000) translate(-18.120480, -8.715892) "></path>
                        <path d="M10.4171679,10.6309083 C11.396507,8.53674854 26.9853799,10.6309082 26.9853799,10.6309082 L32.62048,32.0244104 L3.62048002,32.0244104 C3.62048002,32.0244104 6.32743455,23.7533332 10.4171679,10.6309083 Z" id="Triangle-1-Copy" fill="#104A57" transform="translate(18.120480, 20.862291) rotate(-176.000000) translate(-18.120480, -20.862291) "></path>
                        <path d="M10.358395,3.23427105 C10.358395,3.23427105 16.1051571,14.0800114 25.882565,18.8686008 C12.4692349,12.7523899 10.358395,3.23427105 10.358395,3.23427105 Z" id="Path-23-Copy" fill="#D8D8D8" transform="translate(18.120480, 11.051436) rotate(-222.000000) translate(-18.120480, -11.051436) "></path>
                        <path d="M9.94258625,28.392325 C9.94258625,28.392325 3.69942219,31.28295 3.69942219,35.5622469 C3.69942219,39.8415438 4.51259027,44.9524621 5.38887532,46.6774813 C6.26516036,48.4025004 9.40230305,49.2756258 10.5902913,46.6774813 C11.1767171,43.3058992 9.94258625,38.8949552 9.94258625,38.8949552 C9.94258625,38.8949552 10.2683199,40.5234285 11.023691,46.6774813 C11.023691,48.3533865 16.0540784,48.3912741 16.3960384,46.2984987 C16.7379983,44.2057234 16.2516683,41.1472078 16.6769613,41.1472078 C17.1022542,41.1472078 16.5485798,44.6670296 17.1022542,45.9421297 C17.3400256,46.4897122 17.903925,46.803946 18.675058,46.9578995 C18.8979097,47.0023909 19.138069,47.0334963 19.3926662,47.0529791 C20.3085402,47.1230655 21.6575996,46.7576448 22.074077,45.9421297 C22.074077,45.9421297 22.4914144,44.8779207 22.4914144,42.5632234 C22.2318929,40.4159485 22.7897542,40.4558016 22.7897542,42.5632234 C22.7897542,44.6706453 22.1309103,44.4124707 22.7897542,44.8779207 C24.466512,46.062491 27.2011312,44.8779207 27.2011312,44.8779207 C27.2011312,44.8779207 28.1657506,43.6964631 27.7246755,37.4269415 C27.3860666,32.6138934 24.6492307,28.392325 23.6720784,28.392325 L9.94258625,28.392325 Z" id="Path-13-Copy" fill="#104A57" transform="translate(15.769788, 38.353601) rotate(5.000000) translate(-15.769788, -38.353601) "></path>
                    </g>
                </g>
            </g>
        </g>
    </g>
</svg>