<?xml version="1.0" encoding="UTF-8" standalone="no"?>
<svg width="243px" height="187px" viewBox="0 0 243 187" version="1.1" xmlns="http://www.w3.org/2000/svg" xmlns:xlink="http://www.w3.org/1999/xlink" xmlns:sketch="http://www.bohemiancoding.com/sketch/ns">
    <!-- Generator: Sketch 3.3.3 (12081) - http://www.bohemiancoding.com/sketch -->
    <title>Reactor2 + Reactor1</title>
    <desc>Created with Sketch.</desc>
    <defs></defs>
    <g id="Page-2" stroke="none" stroke-width="1" fill="none" fill-rule="evenodd" sketch:type="MSPage">
        <g id="Desktop" sketch:type="MSArtboardGroup" transform="translate(-1027.000000, -1809.000000)">
            <g id="Reactor2-+-Reactor1" sketch:type="MSLayerGroup" transform="translate(1027.000000, 1809.000000)">
                <g id="Reactor2" transform="translate(113.000000, 0.000000)" sketch:type="MSShapeGroup">
                    <path d="M15.8852889,81.1279834 C15.8852889,56.4388199 12,3.99999991 12,3.99999991 C12,3.99999991 24.9572557,0.954665571 61.9786279,0.954665571 C99,0.954665571 113,3.99999991 113,3.99999991 C113,3.99999991 110.545148,55.8552638 110.545148,81.1279834 C110.545148,112.523813 129.339844,173 129.339844,173 C129.339844,173 117,179.999999 67,179.999999 C17,179.999999 0,173 0,173 C0,173 15.8852889,113.107369 15.8852889,81.1279834 Z" id="Rectangle-23" fill="#D8D8D8"></path>
                    <path d="M15.8852889,81.1279834 C15.8852889,56.4388199 12,3.99999991 12,3.99999991 C12,3.99999991 29,0.954665571 61.9786279,0.954665571 C70.2509176,0.954665571 50.108852,40.6950218 50.8421812,82.4462243 C51.6185489,126.647777 73.6938708,179.674383 61.9786263,179.999999 C26,180.999999 0,173 0,173 C0,173 15.8852889,113.107369 15.8852889,81.1279834 Z" id="Rectangle-23-Copy" fill-opacity="0.2" fill="#000000"></path>
                </g>
                <g id="Reactor1" transform="translate(0.000000, 6.000000)" sketch:type="MSShapeGroup">
                    <path d="M15.8852889,81.1279834 C15.8852889,56.4388199 12,3.99999991 12,3.99999991 C12,3.99999991 24.9572557,0.954665571 61.9786279,0.954665571 C99,0.954665571 113,3.99999991 113,3.99999991 C113,3.99999991 110.545148,55.8552638 110.545148,81.1279834 C110.545148,112.523813 129.339844,173 129.339844,173 C129.339844,173 117,179.999999 67,179.999999 C17,179.999999 0,173 0,173 C0,173 15.8852889,113.107369 15.8852889,81.1279834 Z" id="Rectangle-23" fill="#D8D8D8"></path>
                    <path d="M15.8852889,81.1279834 C15.8852889,56.4388199 12,3.99999991 12,3.99999991 C12,3.99999991 29,0.954665571 61.9786279,0.954665571 C70.2509176,0.954665571 50.108852,40.6950218 50.8421812,82.4462243 C51.6185489,126.647777 73.6938708,179.674383 61.9786263,179.999999 C26,180.999999 0,173 0,173 C0,173 15.8852889,113.107369 15.8852889,81.1279834 Z" id="Rectangle-23-Copy" fill-opacity="0.250509511" fill="#000000"></path>
                </g>
            </g>
        </g>
    </g>
</svg>